<?xml version="1.0" encoding="utf-8"?>
<!-- Generator: Adobe Illustrator 19.2.1, SVG Export Plug-In . SVG Version: 6.00 Build 0)  -->
<svg version="1.1" id="Layer_1" xmlns="http://www.w3.org/2000/svg" xmlns:xlink="http://www.w3.org/1999/xlink" x="0px" y="0px"
	 viewBox="0 0 656 102.6" style="enable-background:new 0 0 656 102.6;" xml:space="preserve">
<style type="text/css">
	.st0{fill:#696969;}
</style>
<title>dealwithit</title>
<g id="xc9ssg.tif">
	<path d="M636.5,41c-1,0-1.3,0.3-1.3,1.3c0,6,0,12,0,18c0,1-0.3,1.3-1.3,1.3c-6,0-12,0-18,0c-1,0-1.2,0.3-1.2,1.3c0,6,0,12,0,18
		c0,1-0.3,1.2-1.3,1.2c-47,0-94,0-141,0c-1,0-1.3-0.3-1.3-1.3c0-6,0-12,0-18c0-1-0.3-1.3-1.3-1.3c-6,0-12,0-18,0
		c-1,0-1.3-0.3-1.3-1.3c0.1-6,0-12,0.1-18c0-1-0.3-1.2-1.3-1.2c-6,0-12,0-18,0c-1,0-1.2-0.3-1.2-1.3c0-6,0-12,0-18
		c0-1-0.3-1.2-1.3-1.2c-6,0.1-12,0.1-18,0c-1.1,0-1.2,0.3-1.2,1.3c0,12.8,0,25.6,0,38.4c0,1.2-0.3,1.4-1.4,1.4
		c-6-0.1-11.9,0-17.9-0.1c-1,0-1.2,0.3-1.2,1.3c0,6,0,12,0,18c0,1-0.3,1.2-1.3,1.2c-6-0.1-12,0-18-0.1c-1.1,0-1.2,0.3-1.2,1.3
		c0,6,0,12,0,18c0,1.1-0.3,1.2-1.3,1.2c-47,0-94,0-141,0c-1,0-1.2-0.3-1.2-1.3c0-6,0-12,0-18c0-1-0.3-1.2-1.3-1.2
		c-6,0.1-12,0-18,0.1c-1,0-1.2-0.3-1.2-1.3c0-6,0-12,0-18c0-1.1-0.3-1.2-1.3-1.2c-6,0-12,0-18,0c-1.1,0-1.2-0.3-1.2-1.3
		c0-6,0-12,0-18c0-1.1-0.3-1.2-1.3-1.2c-6,0.1-11.9,0-17.9,0.1c-1.2,0-1.4-0.3-1.4-1.4c0.1-5.9,0-11.8,0.1-17.8
		c0-1.2-0.3-1.4-1.4-1.4c-40.3,0-80.5,0-120.8,0H41l0,0c0-6.8,0-13.7,0-20.5l521,0c31,0,62,0,92.9,0c0.9,0,1.1,0.2,1.1,1.1
		c0,13.3,0,26.6,0,39.9C649.5,41,643.1,41,636.5,41z M245.9,80.7c0,1,0.3,1.3,1.3,1.3c6-0.1,12-0.1,18,0c1,0,1.3-0.3,1.3-1.3
		c0-6.4,0-12.8,0-19.2H287c0,6.4,0,12.8,0,19.2c0,1,0.3,1.3,1.3,1.3c6,0,12,0,18,0c0.2,0.1,0.4,0.1,0.6,0c0.5-0.1,0.9-0.7,0.7-1.2
		c0-6,0-12,0-18c0-1-0.3-1.3-1.3-1.3c-6.4,0-12.8,0-19.2,0c0-6.4,0-12.8,0-19.2c0-1-0.3-1.3-1.3-1.3c-6.4,0-12.8,0-19.2,0
		c0-6.4,0-12.8,0-19.2c0-1-0.3-1.3-1.3-1.3c-6,0.1-12,0.1-18,0c-1,0-1.3,0.3-1.3,1.3c0,6.4,0,12.8,0,19.2h-20.5c0-6.4,0-12.8,0-19.2
		c0-1-0.3-1.3-1.3-1.3c-6,0-12,0-18,0c-0.2,0-0.3,0-0.5,0c-0.5,0.1-0.9,0.7-0.7,1.2c0,6,0,12,0,18c0,1,0.3,1.3,1.3,1.3
		c6.4,0,12.8,0,19.2,0c0,6.4,0,12.8,0,19.2c0,1,0.3,1.3,1.3,1.3c6.4,0,12.8,0,19.2,0C246,67.9,246,74.3,245.9,80.7z M491.9,60.2
		c0,1,0.3,1.3,1.3,1.3c6-0.1,12-0.1,18,0c1.1,0,1.3-0.3,1.3-1.3c0-6.4,0-12.8,0-19.2H533c0,6.4,0,12.8,0,19.3c0,1,0.3,1.3,1.3,1.3
		c6,0,12,0,18,0c0.2,0,0.3,0,0.5,0c0.5-0.1,0.9-0.7,0.7-1.2c0-6,0-12,0-18c0-1-0.3-1.3-1.3-1.3c-6.4,0-12.8,0-19.2,0
		c0-6.4,0-12.8,0-19.2c0-1-0.3-1.3-1.3-1.3c-6,0.1-12,0.1-18,0c-1,0-1.3,0.3-1.3,1.3c0,6.4,0,12.8,0,19.2H492c0-6.4-0.1-12.8,0-19.2
		c0-1-0.3-1.3-1.3-1.3c-6,0-12,0-18,0c-0.2,0-0.3,0-0.5,0c-0.5,0.1-0.9,0.7-0.7,1.2c0,6,0,12,0,18c0,1,0.3,1.3,1.3,1.3
		c6.4,0,12.8,0,19.2,0C492,47.4,492,53.8,491.9,60.2z"/>
	<path class="st0" d="M512.5,41L512.5,41c0-6.4,0-12.8,0-19.2c0-1,0.3-1.3,1.3-1.3c6,0.1,12,0.1,18,0c1.1,0,1.3,0.3,1.3,1.3
		c0,6.4,0,12.8,0,19.2H512.5z"/>
	<path class="st0" d="M492,41c-6.4,0-12.8,0-19.2,0c-1,0-1.3-0.3-1.3-1.3c0-6,0-12,0-18c0-0.2,0-0.3,0-0.5c0.1-0.5,0.7-0.9,1.2-0.7
		c6,0,12,0,18,0c1,0,1.3,0.3,1.3,1.3C492,28.2,492,34.6,492,41L492,41z"/>
	<path class="st0" d="M266.5,41h-20.6l0,0c0-6.4,0-12.8,0-19.2c0-1,0.3-1.3,1.3-1.3c6,0.1,12,0.1,18,0c1,0,1.3,0.3,1.3,1.3
		C266.5,28.2,266.5,34.6,266.5,41L266.5,41z"/>
	<path class="st0" d="M225.5,41c-6.4,0-12.8,0-19.2,0c-1,0-1.3-0.3-1.3-1.3c0-6,0-12,0-18c0-0.2,0-0.3,0-0.5
		c0.1-0.5,0.6-0.9,1.2-0.8c6,0,12,0,18,0c1,0,1.3,0.3,1.3,1.3C225.5,28.2,225.5,34.6,225.5,41L225.5,41z"/>
	<path class="st0" d="M533,41c6.4,0,12.8,0,19.2,0c1,0,1.3,0.3,1.3,1.3c0,6,0,12,0,18c0,0.2,0,0.3,0,0.5c-0.1,0.5-0.7,0.9-1.2,0.7
		c-6,0-12,0-18,0c-1,0-1.3-0.3-1.3-1.3C533,53.8,533,47.4,533,41L533,41z"/>
	<path class="st0" d="M512.5,41L512.5,41c0,6.4,0,12.8,0,19.2c0,1-0.3,1.3-1.3,1.3c-6-0.1-12-0.1-18,0c-1,0-1.3-0.3-1.3-1.3
		c0-6.4,0-12.8,0-19.2H512.5z"/>
	<path class="st0" d="M266.5,61.5L266.5,61.5V41l0,0c6.4,0,12.8,0,19.2,0c1,0,1.3,0.3,1.3,1.3c0,6.4,0,12.8,0,19.2H266.5z"/>
	<path class="st0" d="M225.5,41H246l0,0v20.5l0,0c-6.4,0-12.8,0-19.2,0c-1,0-1.3-0.3-1.3-1.3C225.5,53.8,225.5,47.4,225.5,41
		L225.5,41z"/>
	<path class="st0" d="M287,61.5c6.4,0,12.8,0,19.2,0c1,0,1.3,0.3,1.3,1.3c0,6,0,12,0,18c0,0.2,0,0.3,0,0.5c-0.1,0.5-0.7,0.9-1.2,0.7
		c-6,0-12,0-18,0c-1,0-1.3-0.3-1.3-1.3C287,74.4,287,67.9,287,61.5L287,61.5z"/>
	<path class="st0" d="M266.5,61.5L266.5,61.5c0,6.4,0,12.8,0,19.2c0,1-0.3,1.3-1.3,1.3c-6-0.1-12-0.1-18,0c-1,0-1.3-0.3-1.3-1.3
		c0-6.4,0-12.8,0-19.2H266.5z"/>
	<path d="M41,20.5c0,6.5,0,13,0,19.5c0,0.9-0.3,1-1.1,1C26.9,41,14,41,1,41c-0.8,0-1-0.2-1-1c0-6.1,0-12.3,0-18.4
		c0-0.8,0.1-1.1,1-1.1C14.3,20.5,27.7,20.5,41,20.5L41,20.5z"/>
	<path d="M246,41h20.5v20.5H246V41z"/>
</g>
</svg>
