<?xml version="1.0" encoding="utf-8"?>
<!-- Generator: Adobe Illustrator 19.2.1, SVG Export Plug-In . SVG Version: 6.00 Build 0)  -->
<svg version="1.1" id="Layer_1" xmlns="http://www.w3.org/2000/svg" xmlns:xlink="http://www.w3.org/1999/xlink" x="0px" y="0px"
	 viewBox="0 0 412.6 280.6" style="enable-background:new 0 0 412.6 280.6;" xml:space="preserve">
<style type="text/css">
	.st0{fill:#18F5BC;}
	.st1{fill:#F531E0;}
</style>
<title>logos-registered</title>
<path class="st0" d="M200.6,20.6l-2.2-13c-0.7-4.2-2.3-7.6-3.6-7.6s-2.4,3.5-2.4,7.7v3.4c0,4.3-3.5,7.7-7.7,7.7h-3.4h-0.7v9.4h0.7
	h12.8c3.5,0.1,6.4-2.6,6.6-6.1C200.7,21.6,200.7,21.1,200.6,20.6"/>
<path class="st0" d="M169.8,9.6H149h-0.5h-21.3c-0.2,0-0.5,0-0.7,0.1v-2c0-4.2-1.1-7.7-2.3-7.7s-2.9,3.4-3.6,7.6l-2.2,13
	c-0.7,3.4,1.5,6.8,4.9,7.5c0.5,0.1,1,0.1,1.5,0.1h12.8c1.2,0,2.5-0.2,3.6-0.6c-0.4,2.2-2.4,3.8-4.6,3.8h-18c-2.6,0-4.7-2.2-4.7-4.8
	c0-0.2,0-0.5,0.1-0.7l1.8-10.9c0.4-2.6-1.3-5-3.9-5.4c-0.3,0-0.5-0.1-0.8-0.1H21.7c-1.9,0-3.5,1.1-4.3,2.8L0.6,38
	c-0.3,0.4-0.2,1,0.1,1.4l3.3,3.9c0.4,0.5,1.1,0.6,1.6,0.2l11.4-9v54.8c0,2.6,2.1,4.7,4.7,4.7c0,0,0,0,0,0h25.4
	c2.6,0,4.7-2.1,4.7-4.7V70.2c0-2.6,2.1-4.7,4.7-4.7h63.4c2.6,0,4.7,2.1,4.7,4.7v19.1c0,2.6,2.1,4.7,4.7,4.7c0,0,0,0,0,0h25.4
	c2.6,0,4.7-2.1,4.7-4.7c0,0,0,0,0,0V68.7h-13.5c-4.3,0-7.7-3.5-7.7-7.7V47.8c0-2.4,1.2-4.7,3.1-6.2v15.7c0,4.2,3.4,7.7,7.7,7.7h20.8
	c4.3,0,7.7-3.5,7.7-7.7V17.3C177.5,13.1,174,9.6,169.8,9.6"/>
<path class="st0" d="M202,4.9c0-2.7,2.2-4.9,4.9-4.9c2.7,0,4.9,2.2,4.9,4.9s-2.2,4.9-4.9,4.9C204.2,9.8,202,7.6,202,4.9z M210.6,4.9
	c0.2-1.9-1.2-3.7-3.1-3.9c-0.2,0-0.4,0-0.7,0c-2-0.1-3.6,1.4-3.8,3.3c0,0.2,0,0.4,0,0.5c-0.2,1.9,1.3,3.7,3.2,3.8c0.2,0,0.4,0,0.5,0
	c1.9,0.1,3.6-1.3,3.7-3.3C210.6,5.3,210.6,5.1,210.6,4.9L210.6,4.9z M205.3,2.5h1.7c0.9,0,1.8,0.2,1.8,1.5c0,0.7-0.5,1.2-1.2,1.3
	l1.2,2h-1.1l-1.1-1.9h-0.4v1.9h-0.9L205.3,2.5L205.3,2.5z M207.1,4.7c0.4,0,0.7-0.3,0.8-0.6c0,0,0,0,0-0.1c0-0.4-0.3-0.6-0.6-0.6
	c0,0-0.1,0-0.1,0h-0.9v1.3L207.1,4.7L207.1,4.7z"/>
<path class="st1" d="M0.3,115.5h28.6c13.6,0,22.7,6.6,22.7,19.3c0,10.4-7.1,16.6-14,18.8c2,1.8,3.7,4.1,4.8,6.6
	c2.9,5.9,4.8,12.3,10.9,12.3c0.9,0,1.9-0.2,2.8-0.5l-1.3,12.2c-2.3,0.5-4.6,0.9-6.9,0.9c-8.2,0-12.9-3.2-17.7-14.2
	c-2-4.9-4.9-13.6-8.7-13.6h-3.9v27.4H0.3V115.5z M17.5,128v17h6.2c4.9,0,10.7-1.5,10.7-8.9c0-6.1-3.9-8.1-8.6-8.1L17.5,128L17.5,128
	z"/>
<path class="st1" d="M74.8,115.5h17.4l23.4,69.3H98.2l-4.3-13.1H70.7l-4.2,13.1h-15L74.8,115.5z M74.8,159h14.9L85,144.4
	c-1.1-3.9-1.9-7.9-2.4-11.9h-0.4c-0.6,4-1.4,7.9-2.6,11.8L74.8,159z"/>
<path class="st1" d="M116.3,115.5h18.4l18.2,34.4c1.5,3,3.6,8.2,5.2,12.3h0.4c-0.2-3.9-0.7-9.4-0.7-13.4v-33.3h14.1v69.3h-18
	L135,150.6c-1.9-3.7-3.6-7.4-5-11.3h-0.4c0.3,3.9,0.8,8.5,0.8,12.3v33.3h-14.1V115.5z"/>
<path class="st1" d="M175.6,149.7c0-25.1,12.4-35.4,31.6-35.4c20.2,0,28.4,11.1,26.1,26.1l-16,1.4c1.8-11-2.6-15.4-10.4-15.4
	c-7.5,0-13.6,5.6-13.6,23.4c0,18.9,6.6,23.7,14.1,23.7c7.1,0,12.8-4.4,11.6-13.5l15,1.5c1.1,14.1-9,24.4-27.5,24.4
	C187.7,186.1,175.6,175,175.6,149.7"/>
<polygon class="st1" points="239.5,115.5 256.6,115.5 256.6,141.7 277.7,141.7 277.7,115.5 294.8,115.5 294.8,184.9 277.7,184.9 
	277.7,155.5 256.6,155.5 256.6,184.9 239.5,184.9 "/>
<polygon class="st1" points="299.7,115.5 345.6,115.5 345.6,128.3 316.9,128.3 316.9,143.2 341,143.2 341,155.9 316.9,155.9 
	316.9,172.1 346.6,172.1 346.6,184.9 299.7,184.9 "/>
<path class="st1" d="M349.9,115.5h28.5c13.6,0,22.7,6.6,22.7,19.3c0,10.4-7.1,16.6-14,18.8c2,1.8,3.7,4.1,4.8,6.6
	c2.9,5.9,4.8,12.3,10.9,12.3c0.9,0,1.9-0.2,2.8-0.5l-1.3,12.2c-2.3,0.5-4.6,0.9-6.9,0.9c-8.2,0-12.9-3.2-17.8-14.2
	c-2-4.9-4.9-13.6-8.7-13.6h-3.9v27.4h-17.1V115.5z M367.1,128v17h6.2c4.9,0,10.7-1.5,10.7-8.9c0-6.1-3.9-8.1-8.6-8.1L367.1,128
	L367.1,128z"/>
<path class="st1" d="M0.3,205.7h17.1v56.6h28.9V275h-46L0.3,205.7L0.3,205.7z"/>
<path class="st1" d="M65.6,205.7h17.4l23.4,69.3H89l-4.3-13.1H61.5L57.3,275h-15L65.6,205.7z M65.6,249.1h14.9l-4.7-14.6
	c-1.1-3.9-1.9-7.9-2.4-11.9H73c-0.6,4-1.4,7.9-2.6,11.8L65.6,249.1z"/>
<path class="st1" d="M108.7,205.7h29.7c12.2,0,21.5,4.1,21.5,16.7c0,9.6-5.2,13.2-14.2,15.2v0.4c10.2,1.2,16.3,6.6,16.3,17
	c0,13.5-9.8,20-22.8,20h-30.5L108.7,205.7L108.7,205.7z M133.4,232.3c4.5,0,9-1.2,9-7.2s-4-7-8-7h-8.6v14.2L133.4,232.3L133.4,232.3
	z M135,262.6c5.2,0,9.8-2.6,9.8-9.4c0-6-4.5-8.4-9.8-8.4h-9.2v17.9H135z"/>
<path class="st1" d="M179.6,252.2c-1.2,5.5,0.9,11.9,11.8,11.9c7.2,0,9.6-2.9,9.6-6.7c0-5.8-5.8-7.2-12.5-9.6
	c-10.2-3.5-22.7-8.4-22.7-22.9c0-12.9,10-20.8,26.9-20.4c20.7,0.4,26.6,12.6,24.3,23.2l-15.7,1.4c1-8-1.9-12.5-10-12.5
	c-5.4,0-8.5,2.1-8.5,6.4c0,5.8,5.6,7.5,12.3,9.9c10.5,3.5,22.9,7.7,22.9,22.1c0,12.4-9.2,21.4-27.3,21.4c-16.9,0-28.6-7.8-26.2-22.6
	L179.6,252.2z"/>
</svg>
