<svg xmlns="http://www.w3.org/2000/svg" id="Layer_1" data-name="Layer 1" viewBox="0 0 347.69 450"><defs><style>.cls-1{fill:#0075a8}</style></defs><title>parachute</title><path d="M217.25,219.11L185.62,340.85h-5l31.64-121.74h5Zm45.79,0L193.37,340.85H199l69.67-121.74H263Zm-134.34,0,31.64,121.74h5L133.74,219.11h-5Zm-51.61,0,69.67,121.74h5.6L82.7,219.11H77.1ZM256.52,382.52s-0.59.31-.34,0.31h13.09a6.58,6.58,0,0,0,6.58-7.91l-2.22-13.38c-0.71-4.27-1.64-7.8-3-7.8s-1.67,3.51-1.67,7.84v3.48c0,4.33-5,9.38-9.34,9.38h-3.25Zm31.07-311.1a60,60,0,0,0-19.67,3.31A81.68,81.68,0,0,0,112,48.21a54.54,54.54,0,0,0-69.34,71.37,36.4,36.4,0,0,0-6.37-.59C16.26,119,0,134.3,0,154.35s16.26,35.37,36.31,35.37H287.59c33.19,0,60.09-26,60.09-59.15S320.78,71.42,287.59,71.42Zm-35.38,300v40.95c0,4.33-3.41,8.28-7.74,8.28H223.25c-4.33,0-8.82-3.95-8.82-8.28V396.25c0,1.44-4.2,3.72-4.2,6.29V416c0,4.33,5.53,8.8,9.86,8.8h15.33v20c0,2.65-3.71,5.16-6.36,5.16H203.12c-2.65,0-5.48-2.5-5.48-5.16V425.37c0-2.65-1.47-4.75-4.13-4.75H128.77c-2.65,0-6.69,2.1-6.69,4.75v19.47c0,2.65-.26,5.16-2.92,5.16H93.22a5.06,5.06,0,0,1-4.73-5.16v-56l-11.73,9.23a1.22,1.22,0,0,1-1.67-.17L71.74,394a1.2,1.2,0,0,1-.09-1.43l17.2-27c0.76-1.66,2.43-3.67,4.37-3.67h91.35c3,0,5.23,3.52,4.74,6.45l-1.86,12.15c-0.49,2.93,1.77,6.59,4.74,6.59h18.36c2.35,0,4.31-2.12,4.72-4.35a12.36,12.36,0,0,1-3.73.15H198.45a6.58,6.58,0,0,1-6.58-7.91l2.22-13.38c0.71-4.27,3.2-7.8,4.52-7.8s3.23,3.51,3.23,7.84v2s-1.15-1.76-.9-1.76h43.53C248.8,361.84,252.21,367.06,252.21,371.39Z" class="cls-1"/></svg>