<svg xmlns="http://www.w3.org/2000/svg" xmlns:xlink="http://www.w3.org/1999/xlink" id="Layer_1" x="0" y="0" version="1.1" viewBox="0 0 300 300" xml:space="preserve" style="enable-background:new 0 0 300 300"><style type="text/css">.st0{fill:#0075a8}</style><g><path d="M264.3,119.9l-2.5-14.9c-0.8-4.8-2.7-8.7-4.1-8.7c-1.5,0-2.7,4-2.7,8.8v3.9c0,4.8-4,8.8-8.8,8.8h-3.9 c-0.3,0-0.6,0-0.8,0v10.7c0.3,0,0.6,0,0.8,0H257C261.8,128.5,265.1,124.6,264.3,119.9" class="st0"/><path d="M229.2,107.3h-23.7c-0.2,0-0.4,0-0.6,0h-24.4c-0.3,0-0.6,0-0.8,0.1v-2.3c0-4.8-1.2-8.8-2.7-8.8 s-3.3,3.9-4.1,8.7l-2.5,14.9c-0.8,4.8,2.5,8.7,7.4,8.7h14.6c1.5,0,2.9-0.2,4.2-0.6c-0.5,2.5-2.6,4.4-5.3,4.4h-20.5 c-3.3,0-5.8-3-5.3-6.3l2.1-12.5c0.5-3.3-2-6.3-5.3-6.3H60.1c-2.2,0-4,1.3-4.9,3.2l-19.2,29.3c-0.3,0.5-0.3,1.1,0.1,1.6l3.7,4.4 c0.5,0.6,1.3,0.6,1.9,0.2l13.1-10.3v62.6c0,3,2.4,5.4,5.4,5.4h29c3,0,5.4-2.4,5.4-5.4v-21.8c0-3,2.4-5.4,5.4-5.4h72.4 c3,0,5.4,2.4,5.4,5.4v21.8c0,3,2.4,5.4,5.4,5.4h29c3,0,5.4-2.4,5.4-5.4v-23.4h-15.4c-4.8,0-8.8-4-8.8-8.8v-15.1 c0-2.9,1.4-5.4,3.5-7v18c0,4.8,4,8.8,8.8,8.8h23.7c4.8,0,8.8-4,8.8-8.8v-45.8C238,111.2,234.1,107.3,229.2,107.3" class="st0"/></g><g><path d="M265.9,101.9c0-3.9,2.9-5.6,5.6-5.6s5.6,1.7,5.6,5.6c0,3.8-2.9,5.5-5.6,5.5S265.9,105.7,265.9,101.9z M275.8,101.9c0-3.1-2-4.4-4.2-4.4c-2.2,0-4.3,1.3-4.3,4.4c0,3,2.1,4.4,4.3,4.4C273.8,106.2,275.8,104.9,275.8,101.9z M269.7,99.1 h2c1,0,2,0.3,2,1.7c0,0.8-0.6,1.3-1.3,1.5l1.3,2.3h-1.2l-1.2-2.2h-0.5v2.2h-1.1V99.1z M271.7,101.6c0.5,0,0.9-0.3,0.9-0.8 c0-0.6-0.5-0.7-0.9-0.7h-1v1.5H271.7z" class="st0"/></g></svg>