<svg id="Layer_1" data-name="Layer 1" xmlns="http://www.w3.org/2000/svg" viewBox="0 0 754.64 93.82"><title>rancher-logo</title><path d="M697.81,45.77a42.57,42.57,0,0,1-2.43,14.76,32.71,32.71,0,0,1-6.85,11.31,30.24,30.24,0,0,1-10.59,7.24,37.51,37.51,0,0,1-27.21,0,30.27,30.27,0,0,1-10.57-7.24,32.68,32.68,0,0,1-6.85-11.31,42.57,42.57,0,0,1-2.43-14.76,42.42,42.42,0,0,1,2.43-14.71,32.68,32.68,0,0,1,6.85-11.31,30.58,30.58,0,0,1,10.57-7.27A34.83,34.83,0,0,1,664.32,9.9a35.31,35.31,0,0,1,13.62,2.56,30.09,30.09,0,0,1,10.59,7.27,33,33,0,0,1,6.85,11.34A42.42,42.42,0,0,1,697.81,45.77Zm-5.26,0a40.1,40.1,0,0,0-2-13.2,28.21,28.21,0,0,0-5.76-9.92,24.8,24.8,0,0,0-8.93-6.23,31.64,31.64,0,0,0-23,0,25,25,0,0,0-9,6.23,28.27,28.27,0,0,0-5.81,9.92A39.61,39.61,0,0,0,636,45.77,39.55,39.55,0,0,0,638.1,59a28.29,28.29,0,0,0,5.81,9.9,24.74,24.74,0,0,0,9,6.2,32,32,0,0,0,23,0,24.53,24.53,0,0,0,8.93-6.2,28.22,28.22,0,0,0,5.76-9.9A40,40,0,0,0,692.55,45.77Z"/><path d="M748.07,19.23a1.4,1.4,0,0,1-1.29.84,2.85,2.85,0,0,1-1.66-.92,21.31,21.31,0,0,0-7.1-4.09,21.77,21.77,0,0,0-13.15.15,14,14,0,0,0-4.86,3,12.66,12.66,0,0,0-3,4.37,13.6,13.6,0,0,0-1,5.21,10.64,10.64,0,0,0,1.51,5.9,13.58,13.58,0,0,0,4,4,25.81,25.81,0,0,0,5.63,2.75q3.15,1.12,6.47,2.21T740.11,45a23.36,23.36,0,0,1,5.63,3.3,15.16,15.16,0,0,1,4,4.89,15.49,15.49,0,0,1,1.51,7.22,22.73,22.73,0,0,1-1.51,8.31,19.4,19.4,0,0,1-4.39,6.77,20.61,20.61,0,0,1-7,4.54,25.58,25.58,0,0,1-9.53,1.66,26.92,26.92,0,0,1-12-2.46A28.15,28.15,0,0,1,708,72.52l1.39-2.18a1.75,1.75,0,0,1,1.39-.74,2,2,0,0,1,1.14.6l1.69,1.46q1,0.87,2.38,1.89a19.62,19.62,0,0,0,3.22,1.89,22.92,22.92,0,0,0,4.22,1.46,22.39,22.39,0,0,0,5.41.6,20.54,20.54,0,0,0,7.44-1.27,16.29,16.29,0,0,0,5.53-3.45,14.61,14.61,0,0,0,3.45-5.18,17.28,17.28,0,0,0,1.19-6.42A11.33,11.33,0,0,0,745,55a13,13,0,0,0-4-4,25.78,25.78,0,0,0-5.63-2.7q-3.15-1.09-6.47-2.13t-6.47-2.33a22.25,22.25,0,0,1-5.63-3.3,15.09,15.09,0,0,1-4-5A16.61,16.61,0,0,1,711.26,28a17.8,17.8,0,0,1,1.34-6.8,16.92,16.92,0,0,1,3.92-5.78,19.24,19.24,0,0,1,6.38-4,23.21,23.21,0,0,1,8.66-1.51,26.2,26.2,0,0,1,9.8,1.74,23.49,23.49,0,0,1,7.91,5.31Z"/><path d="M199.47,19.49l-2.17-13c-0.7-4.18-2.32-7.59-3.62-7.59s-2.35,3.46-2.35,7.7V10a7.72,7.72,0,0,1-7.7,7.7h-3.4l-0.73,0v9.35l0.73,0H193a6.32,6.32,0,0,0,6.43-7.59"/><path d="M168.78,8.48H148l-0.51,0H126.21a4.7,4.7,0,0,0-.73.06v-2c0-4.23-1.06-7.7-2.35-7.7s-2.92,3.42-3.62,7.59l-2.17,13a6.32,6.32,0,0,0,6.43,7.59h12.8a11.68,11.68,0,0,0,3.65-.57,4.7,4.7,0,0,1-4.62,3.83h-18A4.7,4.7,0,0,1,113,24.88L114.84,14A4.7,4.7,0,0,0,110.2,8.5H20.87a4.7,4.7,0,0,0-4.28,2.76L-0.24,36.86a1.17,1.17,0,0,0,.09,1.4l3.27,3.85a1.17,1.17,0,0,0,1.62.16l11.43-9V88a4.7,4.7,0,0,0,4.7,4.7H46.23a4.7,4.7,0,0,0,4.7-4.7V69a4.7,4.7,0,0,1,4.7-4.7h63.31a4.7,4.7,0,0,1,4.7,4.7V88a4.7,4.7,0,0,0,4.7,4.7H153.7a4.7,4.7,0,0,0,4.7-4.7V67.51H144.93a7.72,7.72,0,0,1-7.7-7.7V46.64a7.69,7.69,0,0,1,3.09-6.15V56.22a7.72,7.72,0,0,0,7.7,7.7h20.76a7.72,7.72,0,0,0,7.7-7.7v-40a7.72,7.72,0,0,0-7.7-7.7"/><path d="M216.51,11.13h28.55c13.56,0,22.7,6.57,22.7,19.31,0,10.37-7.09,16.64-14,18.8a20.57,20.57,0,0,1,4.83,6.57c2.88,5.85,4.83,12.32,10.89,12.32a8,8,0,0,0,2.77-.51l-1.34,12.22a33.6,33.6,0,0,1-6.88.92c-8.22,0-12.94-3.18-17.77-14.17C244.24,61.67,241.36,53,237.56,53h-3.9V80.46H216.51V11.13Zm17.15,12.43v17h6.16c4.93,0,10.68-1.54,10.68-8.93,0-6.06-3.9-8.12-8.63-8.12h-8.22Z"/><path d="M291,11.13h17.36l23.42,69.33H314.38l-4.31-13.15H286.85l-4.21,13.15h-15Zm0,43.45h14.89L301.13,40a67.81,67.81,0,0,1-2.36-11.91h-0.41a87.92,87.92,0,0,1-2.57,11.81Z"/><path d="M332.45,11.13h18.39L369,45.54c1.54,3,3.59,8.22,5.24,12.32h0.41c-0.2-3.9-.72-9.45-0.72-13.45V11.13H388V80.46H370l-18.9-34.31a96,96,0,0,1-5-11.3H345.7c0.31,3.9.82,8.53,0.82,12.32V80.46H332.45V11.13Z"/><path d="M391.7,45.34c0-25.06,12.43-35.44,31.63-35.44C443.57,9.9,451.68,21,449.42,36l-16,1.44C435.15,26.44,430.83,22,423,22c-7.5,0-13.56,5.55-13.56,23.42,0,18.9,6.57,23.73,14.07,23.73,7.09,0,12.84-4.42,11.61-13.46l15,1.54c1.13,14.07-9,24.44-27.53,24.44-18.8,0-30.92-11.09-30.92-36.36"/><polygon points="453.63 11.13 470.78 11.13 470.78 37.32 491.83 37.32 491.83 11.13 508.99 11.13 508.99 80.46 491.83 80.46 491.83 51.09 470.78 51.09 470.78 80.46 453.63 80.46 453.63 11.13"/><polygon points="515.86 11.13 561.77 11.13 561.77 23.87 533.01 23.87 533.01 38.76 557.15 38.76 557.15 51.5 533.01 51.5 533.01 67.73 562.79 67.73 562.79 80.46 515.86 80.46 515.86 11.13"/><path d="M566.07,11.13h28.55c13.56,0,22.7,6.57,22.7,19.31,0,10.37-7.09,16.64-14,18.8a20.56,20.56,0,0,1,4.83,6.57c2.88,5.85,4.83,12.32,10.89,12.32a8,8,0,0,0,2.77-.51l-1.33,12.22a33.62,33.62,0,0,1-6.88.92c-8.22,0-12.94-3.18-17.77-14.17C593.81,61.67,590.93,53,587.13,53h-3.9V80.46H566.07V11.13Zm17.15,12.43v17h6.16c4.93,0,10.68-1.54,10.68-8.93,0-6.06-3.9-8.12-8.63-8.12h-8.22Z"/><path d="M623.62,15.52a5.59,5.59,0,1,1,11.19,0A5.59,5.59,0,0,1,623.62,15.52Zm9.84,0c0-3.07-2-4.42-4.25-4.42a4.07,4.07,0,0,0-4.3,4.42,4,4,0,0,0,4.3,4.37A4,4,0,0,0,633.46,15.49Zm-6.1-2.78h2c1,0,2,.29,2,1.7A1.44,1.44,0,0,1,630,15.88l1.32,2.26h-1.2l-1.22-2.18h-0.48v2.18h-1.08V12.71Zm2.06,2.47a0.8,0.8,0,0,0,.86-0.79,0.73,0.73,0,0,0-.86-0.72h-1v1.51h1Z"/></svg>