<svg id="Layer_1" data-name="Layer 1" xmlns="http://www.w3.org/2000/svg" viewBox="0 0 385.26 450"><defs><style>.cls-1{fill:#0075a8;}</style></defs><title>parachute</title><path class="cls-1" d="M257.13,243.8L229,352h-4.48L252.65,243.8h4.48Zm40.7,0L235.9,352h5L302.81,243.8h-5Zm-119.41,0L206.54,352H211L182.9,243.8h-4.48Zm-45.87,0L194.48,352h5L137.54,243.8h-5ZM292,389s-0.52.28-.3,0.28h11.63a5.85,5.85,0,0,0,5.85-7l-2-11.89c-0.63-3.8-1.46-6.93-2.63-6.93s-1.48,3.12-1.48,7v3.09c0,3.85-4.45,8.34-8.3,8.34h-2.89Zm27.62-276.52a53.31,53.31,0,0,0-17.49,2.94A72.61,72.61,0,0,0,163.6,91.89,48.47,48.47,0,0,0,102,155.33a32.35,32.35,0,0,0-5.66-.53C78.47,154.8,64,168.42,64,186.24s14.45,31.44,32.28,31.44H319.65c29.5,0,53.41-23.08,53.41-52.58S349.15,112.53,319.65,112.53ZM288.2,379.16v36.4c0,3.85-3,7.36-6.88,7.36H262.46c-3.85,0-7.84-3.51-7.84-7.36v-14.3c0,1.28-3.73,3.31-3.73,5.59v12c0,3.85,4.91,7.82,8.76,7.82h13.63v17.8c0,2.36-3.3,4.59-5.65,4.59H244.57c-2.36,0-4.88-2.23-4.88-4.59V427.14c0-2.36-1.31-4.23-3.67-4.23H178.48c-2.36,0-6,1.87-6,4.23v17.31c0,2.36-.23,4.59-2.59,4.59H146.88a4.5,4.5,0,0,1-4.21-4.59V394.68l-10.43,8.2a1.08,1.08,0,0,1-1.49-.15l-3-3.5a1.06,1.06,0,0,1-.08-1.27l15.29-24c0.67-1.48,2.16-3.26,3.89-3.26h81.2c2.64,0,4.65,3.13,4.21,5.73l-1.65,10.8c-0.43,2.6,1.57,5.86,4.21,5.86h16.32a4.63,4.63,0,0,0,4.2-3.87,11,11,0,0,1-3.32.13H240.42a5.85,5.85,0,0,1-5.85-7l2-11.89c0.63-3.8,2.84-6.93,4-6.93s2.87,3.12,2.87,7v1.8s-1-1.57-.8-1.57h38.7C285.18,370.67,288.2,375.31,288.2,379.16Z"/><path class="cls-1" d="M63.23,73.82L54,109.15H52.59l9.18-35.33h1.46Zm13.29,0L56.3,109.15h1.63L78.15,73.82H76.52Zm-39,0,9.18,35.33h1.46L39,73.82H37.53Zm-15,0,20.22,35.33H44.4L24.18,73.82H22.55Zm52.07,47.43s-0.17.09-.1,0.09h3.8a1.91,1.91,0,0,0,1.91-2.3l-0.64-3.88c-0.21-1.24-.48-2.26-0.86-2.26s-0.48,1-.48,2.27v1a3.1,3.1,0,0,1-2.71,2.72H74.59Zm9-90.29a17.41,17.41,0,0,0-5.71,1,23.71,23.71,0,0,0-45.25-7.7A15.83,15.83,0,0,0,12.56,44.93a10.56,10.56,0,0,0-1.85-.17,10.27,10.27,0,1,0,0,20.53H83.64A17.17,17.17,0,1,0,83.64,31ZM73.37,118v11.88a2.36,2.36,0,0,1-2.25,2.4H65a2.65,2.65,0,0,1-2.56-2.4v-4.67c0,0.42-1.22,1.08-1.22,1.82V131c0,1.26,1.6,2.55,2.86,2.55H68.5v5.81a1.94,1.94,0,0,1-1.85,1.5H59.13a1.67,1.67,0,0,1-1.59-1.5v-5.65a1.23,1.23,0,0,0-1.2-1.38H37.55c-0.77,0-1.94.61-1.94,1.38v5.65c0,0.77-.08,1.5-0.85,1.5H27.23a1.47,1.47,0,0,1-1.37-1.5V123.08l-3.4,2.68a0.35,0.35,0,0,1-.49,0l-1-1.14a0.35,0.35,0,0,1,0-.42l5-7.84a1.66,1.66,0,0,1,1.27-1.07H53.74a1.62,1.62,0,0,1,1.38,1.87l-0.54,3.53A1.66,1.66,0,0,0,56,122.55h5.33a1.51,1.51,0,0,0,1.37-1.26,3.59,3.59,0,0,1-1.08,0h-3.8a1.91,1.91,0,0,1-1.91-2.3l0.64-3.88c0.21-1.24.93-2.26,1.31-2.26s0.94,1,.94,2.27v0.59a1.8,1.8,0,0,1-.26-0.51H71.13C72.39,115.24,73.37,116.75,73.37,118Z"/><path class="cls-1" d="M363.81,35.37l-5.25,20.19h-0.84L363,35.37h0.84Zm7.59,0L359.85,55.56h0.93l11.55-20.19H371.4Zm-22.28,0,5.25,20.19h0.84L350,35.37h-0.84Zm-8.56,0,11.55,20.19H353L341.49,35.37h-0.93Zm29.76,27.1s-0.1.05-.06,0.05h2.17a1.09,1.09,0,0,0,1.09-1.31L373.16,59a1.71,1.71,0,0,0-.49-1.29c-0.22,0-.28.58-0.28,1.3v0.58a1.77,1.77,0,0,1-1.55,1.56H370.3Zm5.15-51.59a10,10,0,0,0-3.26.55A13.55,13.55,0,0,0,346.36,7a9,9,0,0,0-11.5,11.84,6,6,0,0,0-1.06-.1,5.87,5.87,0,1,0,0,11.73h41.67A9.81,9.81,0,1,0,375.47,10.88ZM369.6,60.62v6.79a1.35,1.35,0,0,1-1.28,1.37H364.8a1.51,1.51,0,0,1-1.46-1.37V64.75c0,0.24-.7.62-0.7,1V68a1.77,1.77,0,0,0,1.63,1.46h2.54V72.8a1.11,1.11,0,0,1-1.06.86h-4.3a1,1,0,0,1-.91-0.86V69.57a0.7,0.7,0,0,0-.68-0.79H349.13a1.12,1.12,0,0,0-1.11.79V72.8c0,0.44,0,.86-0.48.86h-4.3a0.84,0.84,0,0,1-.78-0.86V63.52L340.51,65a0.2,0.2,0,0,1-.28,0l-0.56-.65a0.2,0.2,0,0,1,0-.24l2.85-4.48a1,1,0,0,1,.72-0.61h15.15a0.92,0.92,0,0,1,.79,1.07l-0.31,2a1,1,0,0,0,.79,1.09h3a0.86,0.86,0,0,0,.78-0.72,2,2,0,0,1-.62,0h-2.17a1.09,1.09,0,0,1-1.09-1.31L360,59a1.65,1.65,0,0,1,.75-1.29,1.36,1.36,0,0,1,.53,1.3v0.34A1,1,0,0,1,361.1,59h7.22A1.56,1.56,0,0,1,369.6,60.62Z"/></svg>