<svg id="Layer_1" data-name="Layer 1" xmlns="http://www.w3.org/2000/svg" viewBox="0 0 403.11 450"><defs><style>.cls-1{fill:#0075a8;}</style></defs><title>parachute</title><path class="cls-1" d="M258.72,219.11L227.1,340.77h-5l31.61-121.66h5Zm45.76,0L234.85,340.77h5.6l69.62-121.66h-5.6Zm-134.25,0,31.61,121.66h5L175.26,219.11h-5Zm-51.57,0,69.62,121.66h5.6L124.26,219.11h-5.6ZM298,382.41s-0.59.31-.34,0.31H310.7a6.57,6.57,0,0,0,6.57-7.9l-2.22-13.37c-0.71-4.27-1.64-7.8-3-7.8s-1.67,3.5-1.67,7.83V365c0,4.33-5,9.37-9.33,9.37h-3.25ZM329,71.53a59.93,59.93,0,0,0-19.66,3.31A81.63,81.63,0,0,0,153.56,48.33a54.5,54.5,0,0,0-69.3,71.32,36.37,36.37,0,0,0-6.36-.59c-20,0-36.29,15.3-36.29,35.35s16.25,35.35,36.29,35.35H329c33.17,0,60.05-25.94,60.05-59.11S362.17,71.53,329,71.53ZM293.65,371.29v40.92c0,4.33-3.4,8.27-7.73,8.27H264.71c-4.33,0-8.82-3.95-8.82-8.27V396.13c0,1.44-4.2,3.72-4.2,6.28v13.47c0,4.33,5.52,8.79,9.85,8.79h15.32v20c0,2.65-3.71,5.15-6.36,5.15H244.59c-2.65,0-5.48-2.5-5.48-5.15V425.23c0-2.65-1.47-4.75-4.12-4.75h-64.7c-2.65,0-6.69,2.1-6.69,4.75v19.46c0,2.65-.26,5.15-2.91,5.15H134.77a5.05,5.05,0,0,1-4.73-5.15v-56L118.32,398a1.22,1.22,0,0,1-1.67-.17l-3.35-3.94a1.2,1.2,0,0,1-.09-1.43l17.19-27c0.76-1.66,2.42-3.67,4.37-3.67h91.29c3,0,5.22,3.51,4.74,6.44l-1.86,12.14c-0.49,2.93,1.77,6.59,4.74,6.59H252c2.35,0,4.3-2.12,4.72-4.35a12.35,12.35,0,0,1-3.73.15H239.93a6.57,6.57,0,0,1-6.57-7.91l2.22-13.37c0.71-4.27,3.2-7.8,4.52-7.8s3.22,3.5,3.22,7.83v2s-1.15-1.76-.89-1.76h43.5C290.25,361.75,293.65,367,293.65,371.29Z"/><path class="cls-1" d="M71,307.74L60.7,347.46H59.06l10.32-39.72H71Zm14.94,0L63.23,347.46h1.83L87.8,307.74H86Zm-43.83,0,10.32,39.72H54.1L43.78,307.74H42.13Zm-16.84,0L48,347.46h1.83L27.12,307.74H25.3Zm58.54,53.32s-0.19.1-.11,0.1H88a2.15,2.15,0,0,0,2.15-2.58l-0.72-4.36c-0.23-1.39-.54-2.55-1-2.55s-0.54,1.14-.54,2.56v1.13a3.49,3.49,0,0,1-3,3.06H83.8ZM94,259.55a19.57,19.57,0,0,0-6.42,1.08A26.65,26.65,0,0,0,36.69,252a17.79,17.79,0,0,0-22.63,23.29,11.88,11.88,0,0,0-2.08-.19,11.54,11.54,0,1,0,0,23.08H94A19.3,19.3,0,1,0,94,259.55ZM82.43,357.42v13.36a2.66,2.66,0,0,1-2.52,2.7H73a3,3,0,0,1-2.88-2.7v-5.25c0,0.47-1.37,1.21-1.37,2.05V372c0,1.41,1.8,2.87,3.22,2.87h5v6.54a2.18,2.18,0,0,1-2.08,1.68H66.41a1.87,1.87,0,0,1-1.79-1.68V375a1.38,1.38,0,0,0-1.35-1.55H42.15c-0.87,0-2.18.69-2.18,1.55v6.35c0,0.87-.09,1.68-1,1.68H30.56A1.65,1.65,0,0,1,29,381.39V363.12l-3.83,3a0.4,0.4,0,0,1-.55-0.05l-1.09-1.29a0.39,0.39,0,0,1,0-.47l5.61-8.82a1.86,1.86,0,0,1,1.43-1.2H60.36a1.82,1.82,0,0,1,1.55,2.1l-0.61,4a1.86,1.86,0,0,0,1.55,2.15h6a1.7,1.7,0,0,0,1.54-1.42,4,4,0,0,1-1.22,0H64.89a2.15,2.15,0,0,1-2.15-2.58l0.72-4.36c0.23-1.39,1-2.55,1.47-2.55S66,352.81,66,354.22v0.66a2,2,0,0,1-.29-0.58h14.2C81.32,354.31,82.43,356,82.43,357.42Z"/><path class="cls-1" d="M378.65,257.8l-5.9,22.7h-0.94l5.9-22.7h0.94Zm8.54,0-13,22.7h1l13-22.7h-1Zm-25,0,5.9,22.7H369l-5.9-22.7h-0.94Zm-9.62,0,13,22.7h1l-13-22.7h-1ZM386,288.27s-0.11.06-.06,0.06h2.44a1.23,1.23,0,0,0,1.23-1.47l-0.41-2.49c-0.13-.8-0.31-1.45-0.55-1.45s-0.31.65-.31,1.46V285a2,2,0,0,1-1.74,1.75H386Zm5.79-58a11.18,11.18,0,0,0-3.67.62A15.23,15.23,0,0,0,359,225.93a10.17,10.17,0,0,0-12.93,13.31,6.79,6.79,0,0,0-1.19-.11,6.6,6.6,0,1,0,0,13.19h46.85A11,11,0,1,0,391.76,230.26Zm-6.6,55.93v7.63a1.52,1.52,0,0,1-1.44,1.54h-4a1.7,1.7,0,0,1-1.64-1.54v-3c0,0.27-.78.69-0.78,1.17v2.51a2,2,0,0,0,1.84,1.64H382v3.73a1.25,1.25,0,0,1-1.19,1H376a1.07,1.07,0,0,1-1-1v-3.63a0.79,0.79,0,0,0-.77-0.89H362.15a1.26,1.26,0,0,0-1.25.89v3.63c0,0.49,0,1-.54,1h-4.84a0.94,0.94,0,0,1-.88-1V289.45l-2.19,1.72a0.23,0.23,0,0,1-.31,0l-0.62-.73a0.22,0.22,0,0,1,0-.27l3.21-5a1.06,1.06,0,0,1,.82-0.68h17a1,1,0,0,1,.88,1.2l-0.35,2.26a1.06,1.06,0,0,0,.88,1.23h3.42a1,1,0,0,0,.88-0.81,2.3,2.3,0,0,1-.7,0h-2.44a1.23,1.23,0,0,1-1.23-1.47l0.41-2.49a1.85,1.85,0,0,1,.84-1.45,1.53,1.53,0,0,1,.6,1.46v0.38a1.16,1.16,0,0,1-.17-0.33h8.12A1.75,1.75,0,0,1,385.17,286.19Z"/></svg>