<svg xmlns="http://www.w3.org/2000/svg" id="Layer_1" data-name="Layer 1" viewBox="0 0 864.12 93.82"><defs><style>.cls-1{fill:#0075a8}.cls-2{fill:#59595b}</style></defs><title>logos-registered</title><path d="M201.08,21.46l-2.17-13c-0.7-4.18-2.33-7.61-3.62-7.61s-2.35,3.47-2.35,7.71v3.41a7.73,7.73,0,0,1-7.71,7.71h-3.41l-0.73,0V29l0.73,0h12.82a6.33,6.33,0,0,0,6.44-7.61" class="cls-1"/><path d="M170.35,10.43H149.56l-0.51,0H127.71a4.71,4.71,0,0,0-.73.06v-2c0-4.24-1.06-7.71-2.35-7.71S121.7,4.25,121,8.43l-2.17,13a6.33,6.33,0,0,0,6.44,7.61h12.82a11.69,11.69,0,0,0,3.65-.57,4.71,4.71,0,0,1-4.62,3.84h-18a4.71,4.71,0,0,1-4.64-5.48l1.82-10.92a4.71,4.71,0,0,0-4.64-5.48H22.2a4.7,4.7,0,0,0-4.28,2.76L1.07,38.85a1.17,1.17,0,0,0,.09,1.4l3.27,3.86A1.17,1.17,0,0,0,6,44.28l11.45-9V90.08a4.71,4.71,0,0,0,4.71,4.71h25.4a4.71,4.71,0,0,0,4.71-4.71V71A4.71,4.71,0,0,1,57,66.3h63.41A4.71,4.71,0,0,1,125.14,71V90.08a4.71,4.71,0,0,0,4.71,4.71h25.4A4.71,4.71,0,0,0,160,90.08V69.56H146.46a7.73,7.73,0,0,1-7.71-7.71V48.65a7.7,7.7,0,0,1,3.1-6.16V58.25A7.73,7.73,0,0,0,149.56,66h20.79a7.73,7.73,0,0,0,7.71-7.71V18.14a7.73,7.73,0,0,0-7.71-7.71" class="cls-1"/><path d="M202.51,5.74a4.9,4.9,0,1,1,9.8,0A4.9,4.9,0,0,1,202.51,5.74Zm8.62,0a3.52,3.52,0,0,0-3.72-3.87,3.56,3.56,0,0,0-3.76,3.87,3.54,3.54,0,0,0,3.76,3.83A3.5,3.5,0,0,0,211.13,5.72Zm-5.34-2.44h1.72c0.88,0,1.77.25,1.77,1.49a1.26,1.26,0,0,1-1.16,1.28l1.16,2h-1.05l-1.07-1.91h-0.42V8h-0.95V3.28Zm1.81,2.17a0.7,0.7,0,0,0,.76-0.69,0.64,0.64,0,0,0-.76-0.63h-0.86V5.45h0.86Z" class="cls-1"/><path d="M217.81,13.89h28.55c13.56,0,22.7,6.57,22.7,19.31,0,10.37-7.09,16.64-14,18.8a20.57,20.57,0,0,1,4.83,6.57c2.88,5.85,4.83,12.32,10.89,12.32a8,8,0,0,0,2.77-.51l-1.34,12.22a33.6,33.6,0,0,1-6.88.92c-8.22,0-12.94-3.18-17.77-14.17-2.05-4.93-4.93-13.56-8.73-13.56H235V83.22H217.81V13.89ZM235,26.32v17h6.16c4.93,0,10.68-1.54,10.68-8.93,0-6.06-3.9-8.12-8.63-8.12H235Z" class="cls-2"/><path d="M292.27,13.89h17.36L333,83.22H315.69l-4.31-13.15H288.16l-4.21,13.15H269Zm0,43.45h14.89l-4.72-14.58a67.81,67.81,0,0,1-2.36-11.91h-0.41a87.92,87.92,0,0,1-2.57,11.81Z" class="cls-2"/><path d="M333.75,13.89h18.39L370.32,48.3c1.54,3,3.59,8.22,5.24,12.32H376c-0.2-3.9-.72-9.45-0.72-13.45V13.89h14.07V83.22h-18l-18.9-34.31a96,96,0,0,1-5-11.3H347c0.31,3.9.82,8.53,0.82,12.32V83.22H333.75V13.89Z" class="cls-2"/><path d="M393,48.1c0-25.06,12.43-35.44,31.63-35.44,20.23,0,28.35,11.09,26.09,26.09l-16,1.44c1.75-11-2.57-15.41-10.37-15.41-7.5,0-13.56,5.55-13.56,23.42,0,18.9,6.57,23.73,14.07,23.73,7.09,0,12.84-4.42,11.61-13.46l15,1.54c1.13,14.07-9,24.44-27.53,24.44C405.13,84.45,393,73.36,393,48.1" class="cls-2"/><polygon points="456.93 13.89 474.08 13.89 474.08 40.09 495.14 40.09 495.14 13.89 512.29 13.89 512.29 83.22 495.14 83.22 495.14 53.85 474.08 53.85 474.08 83.22 456.93 83.22 456.93 13.89" class="cls-2"/><polygon points="517.16 13.89 563.08 13.89 563.08 26.63 534.32 26.63 534.32 41.52 558.45 41.52 558.45 54.26 534.32 54.26 534.32 70.49 564.1 70.49 564.1 83.22 517.16 83.22 517.16 13.89" class="cls-2"/><path d="M567.38,13.89h28.55c13.56,0,22.7,6.57,22.7,19.31,0,10.37-7.09,16.64-14,18.8a20.56,20.56,0,0,1,4.83,6.57c2.88,5.85,4.83,12.32,10.89,12.32a8,8,0,0,0,2.77-.51l-1.33,12.22a33.62,33.62,0,0,1-6.88.92c-8.22,0-12.94-3.18-17.77-14.17-2.05-4.93-4.93-13.56-8.73-13.56h-3.9V83.22H567.38V13.89Zm17.15,12.43v17h6.16c4.93,0,10.68-1.54,10.68-8.93,0-6.06-3.9-8.12-8.63-8.12h-8.22Z" class="cls-2"/><path d="M641.86,14.89H659V71.47h28.85V84.2h-46V14.89Z" class="cls-2"/><path d="M707.09,14.89h17.35L747.86,84.2H730.51l-4.31-13.14H703L698.78,84.2h-15Zm0,43.43H722l-4.72-14.58a67.79,67.79,0,0,1-2.36-11.91h-0.41a88,88,0,0,1-2.57,11.81Z" class="cls-2"/><path d="M750.22,14.89h29.68c12.22,0,21.46,4.11,21.46,16.74,0,9.55-5.24,13.25-14.17,15.2v0.41c10.16,1.23,16.33,6.57,16.33,16.94,0,13.55-9.75,20-22.8,20h-30.5V14.89Zm24.64,26.59c4.52,0,9-1.23,9-7.19s-4-7-8-7h-8.63V41.49h7.6Zm1.64,30.29c5.24,0,9.76-2.57,9.76-9.45,0-6-4.52-8.42-9.76-8.42h-9.24V71.78h9.24Z" class="cls-2"/><path d="M821.14,61.41c-1.23,5.54.92,11.91,11.81,11.91,7.19,0,9.65-2.88,9.65-6.67,0-5.75-5.75-7.19-12.53-9.65-10.17-3.49-22.69-8.42-22.69-22.9,0-12.94,10-20.84,26.9-20.43,20.74,0.41,26.59,12.63,24.34,23.21L842.91,38.3c1-8-1.85-12.53-10-12.53-5.44,0-8.52,2.05-8.52,6.37,0,5.75,5.55,7.5,12.32,9.86,10.47,3.49,22.9,7.7,22.9,22.08,0,12.42-9.24,21.36-27.31,21.36-16.94,0-28.55-7.8-26.18-22.59Z" class="cls-2"/></svg>