<svg id="Layer_1" data-name="Layer 1" xmlns="http://www.w3.org/2000/svg" viewBox="0 0 754.64 93.82"><defs><style>.cls-1{fill:#59595b;}.cls-2{fill:#0075a8;}</style></defs><title>rancher-logo</title><path class="cls-1" d="M698.24,46.33a42.57,42.57,0,0,1-2.43,14.76A32.71,32.71,0,0,1,689,72.4a30.24,30.24,0,0,1-10.59,7.24,37.51,37.51,0,0,1-27.21,0,30.27,30.27,0,0,1-10.57-7.24,32.68,32.68,0,0,1-6.85-11.31,42.57,42.57,0,0,1-2.43-14.76,42.42,42.42,0,0,1,2.43-14.71,32.68,32.68,0,0,1,6.85-11.31A30.58,30.58,0,0,1,651.16,13a34.83,34.83,0,0,1,13.59-2.58A35.31,35.31,0,0,1,678.37,13,30.09,30.09,0,0,1,689,20.28a33,33,0,0,1,6.85,11.34A42.42,42.42,0,0,1,698.24,46.33Zm-5.26,0a40.1,40.1,0,0,0-2-13.2,28.21,28.21,0,0,0-5.76-9.92A24.8,24.8,0,0,0,676.26,17a31.64,31.64,0,0,0-23,0,25,25,0,0,0-9,6.23,28.27,28.27,0,0,0-5.81,9.92,39.61,39.61,0,0,0-2.06,13.2,39.55,39.55,0,0,0,2.06,13.22,28.29,28.29,0,0,0,5.81,9.9,24.74,24.74,0,0,0,9,6.2,32,32,0,0,0,23,0,24.53,24.53,0,0,0,8.93-6.2,28.22,28.22,0,0,0,5.76-9.9A40,40,0,0,0,693,46.33Z"/><path class="cls-1" d="M748.5,19.79a1.4,1.4,0,0,1-1.29.84,2.85,2.85,0,0,1-1.66-.92,21.31,21.31,0,0,0-7.1-4.09,21.77,21.77,0,0,0-13.15.15,14,14,0,0,0-4.86,3,12.66,12.66,0,0,0-3,4.37,13.6,13.6,0,0,0-1,5.21,10.64,10.64,0,0,0,1.51,5.9,13.58,13.58,0,0,0,4,4,25.81,25.81,0,0,0,5.63,2.75q3.15,1.12,6.47,2.21t6.48,2.41a23.36,23.36,0,0,1,5.63,3.3,15.16,15.16,0,0,1,4,4.89A15.49,15.49,0,0,1,751.68,61a22.73,22.73,0,0,1-1.51,8.31A19.4,19.4,0,0,1,745.77,76a20.61,20.61,0,0,1-7,4.54,25.58,25.58,0,0,1-9.53,1.66,26.92,26.92,0,0,1-12-2.46,28.15,28.15,0,0,1-8.78-6.72l1.39-2.18a1.75,1.75,0,0,1,1.39-.74,2,2,0,0,1,1.14.6l1.69,1.46q1,0.87,2.38,1.89A19.62,19.62,0,0,0,719.67,76a22.92,22.92,0,0,0,4.22,1.46,22.39,22.39,0,0,0,5.41.6,20.54,20.54,0,0,0,7.44-1.27,16.29,16.29,0,0,0,5.53-3.45,14.61,14.61,0,0,0,3.45-5.18,17.28,17.28,0,0,0,1.19-6.42,11.33,11.33,0,0,0-1.51-6.13,13,13,0,0,0-4-4,25.78,25.78,0,0,0-5.63-2.7q-3.15-1.09-6.47-2.13t-6.47-2.33a22.25,22.25,0,0,1-5.63-3.3,15.09,15.09,0,0,1-4-5,16.61,16.61,0,0,1-1.51-7.52,17.8,17.8,0,0,1,1.34-6.8A16.92,16.92,0,0,1,716.95,16a19.24,19.24,0,0,1,6.38-4A23.21,23.21,0,0,1,732,10.46a26.2,26.2,0,0,1,9.8,1.74,23.49,23.49,0,0,1,7.91,5.31Z"/><path class="cls-2" d="M199.9,20L197.73,7c-0.7-4.18-2.32-7.59-3.62-7.59s-2.35,3.46-2.35,7.7v3.4a7.72,7.72,0,0,1-7.7,7.7h-3.4l-0.73,0v9.35l0.73,0h12.8A6.32,6.32,0,0,0,199.9,20"/><path class="cls-2" d="M169.21,9H148.46l-0.51,0H126.64a4.7,4.7,0,0,0-.73.06v-2c0-4.23-1.06-7.7-2.35-7.7S120.63,2.86,119.94,7l-2.17,13a6.32,6.32,0,0,0,6.43,7.59H137a11.68,11.68,0,0,0,3.65-.57A4.7,4.7,0,0,1,136,30.91h-18a4.7,4.7,0,0,1-4.64-5.47l1.82-10.9a4.7,4.7,0,0,0-4.64-5.47H21.3A4.7,4.7,0,0,0,17,11.82L0.19,37.41a1.17,1.17,0,0,0,.09,1.4l3.27,3.85a1.17,1.17,0,0,0,1.62.16l11.43-9V88.57a4.7,4.7,0,0,0,4.7,4.7H46.66a4.7,4.7,0,0,0,4.7-4.7v-19a4.7,4.7,0,0,1,4.7-4.7h63.31a4.7,4.7,0,0,1,4.7,4.7v19a4.7,4.7,0,0,0,4.7,4.7h25.36a4.7,4.7,0,0,0,4.7-4.7V68.07H145.36a7.72,7.72,0,0,1-7.7-7.7V47.2A7.69,7.69,0,0,1,140.76,41V56.78a7.72,7.72,0,0,0,7.7,7.7h20.76a7.72,7.72,0,0,0,7.7-7.7v-40a7.72,7.72,0,0,0-7.7-7.7"/><path class="cls-1" d="M216.94,11.69h28.55c13.56,0,22.7,6.57,22.7,19.31,0,10.37-7.09,16.64-14,18.8A20.57,20.57,0,0,1,259,56.37c2.88,5.85,4.83,12.32,10.89,12.32a8,8,0,0,0,2.77-.51L271.37,80.4a33.6,33.6,0,0,1-6.88.92c-8.22,0-12.94-3.18-17.77-14.17-2.05-4.93-4.93-13.56-8.73-13.56h-3.9V81H216.94V11.69Zm17.15,12.43v17h6.16c4.93,0,10.68-1.54,10.68-8.93,0-6.06-3.9-8.12-8.63-8.12h-8.22Z"/><path class="cls-1" d="M291.39,11.69h17.36L332.17,81H314.81L310.5,67.87H287.29L283.07,81h-15Zm0,43.45h14.89l-4.72-14.58a67.81,67.81,0,0,1-2.36-11.91h-0.41a87.92,87.92,0,0,1-2.57,11.81Z"/><path class="cls-1" d="M332.88,11.69h18.39L369.44,46.1c1.54,3,3.59,8.22,5.24,12.32h0.41c-0.2-3.9-.72-9.45-0.72-13.45V11.69h14.07V81h-18l-18.9-34.31a96,96,0,0,1-5-11.3h-0.41c0.31,3.9.82,8.53,0.82,12.32V81H332.88V11.69Z"/><path class="cls-1" d="M392.13,45.89c0-25.06,12.43-35.44,31.63-35.44,20.23,0,28.35,11.09,26.09,26.09l-16,1.44c1.75-11-2.57-15.41-10.37-15.41-7.5,0-13.56,5.55-13.56,23.42,0,18.9,6.57,23.73,14.07,23.73,7.09,0,12.84-4.42,11.61-13.46l15,1.54c1.13,14.07-9,24.44-27.53,24.44-18.8,0-30.92-11.09-30.92-36.36"/><polygon class="cls-1" points="454.06 11.69 471.21 11.69 471.21 37.88 492.26 37.88 492.26 11.69 509.42 11.69 509.42 81.02 492.26 81.02 492.26 51.64 471.21 51.64 471.21 81.02 454.06 81.02 454.06 11.69"/><polygon class="cls-1" points="516.29 11.69 562.2 11.69 562.2 24.43 533.44 24.43 533.44 39.32 557.58 39.32 557.58 52.05 533.44 52.05 533.44 68.28 563.23 68.28 563.23 81.02 516.29 81.02 516.29 11.69"/><path class="cls-1" d="M566.51,11.69h28.55c13.56,0,22.7,6.57,22.7,19.31,0,10.37-7.09,16.64-14,18.8a20.56,20.56,0,0,1,4.83,6.57c2.88,5.85,4.83,12.32,10.89,12.32a8,8,0,0,0,2.77-.51L620.94,80.4a33.62,33.62,0,0,1-6.88.92c-8.22,0-12.94-3.18-17.77-14.17-2.05-4.93-4.93-13.56-8.73-13.56h-3.9V81H566.51V11.69Zm17.15,12.43v17h6.16c4.93,0,10.68-1.54,10.68-8.93,0-6.06-3.9-8.12-8.63-8.12h-8.22Z"/><path class="cls-1" d="M624.05,16.07a5.59,5.59,0,1,1,11.19,0A5.59,5.59,0,0,1,624.05,16.07Zm9.84,0c0-3.07-2-4.42-4.25-4.42a4.07,4.07,0,0,0-4.3,4.42,4,4,0,0,0,4.3,4.37A4,4,0,0,0,633.89,16Zm-6.1-2.78h2c1,0,2,.29,2,1.7a1.44,1.44,0,0,1-1.32,1.46l1.32,2.26h-1.2l-1.22-2.18h-0.48v2.18h-1.08V13.27Zm2.06,2.47a0.8,0.8,0,0,0,.86-0.79,0.73,0.73,0,0,0-.86-0.72h-1v1.51h1Z"/></svg>